<?xml version="1.0" encoding="UTF-8" standalone="no"?>
<!DOCTYPE svg PUBLIC "-//W3C//DTD SVG 1.1//EN" "http://www.w3.org/Graphics/SVG/1.1/DTD/svg11.dtd">
<svg width="100%" height="100%" viewBox="0 0 600 600" version="1.1" xmlns="http://www.w3.org/2000/svg" xmlns:xlink="http://www.w3.org/1999/xlink" xml:space="preserve" xmlns:serif="http://www.serif.com/" style="fill-rule:evenodd;clip-rule:evenodd;stroke-linejoin:round;stroke-miterlimit:2;">
    <rect id="Artboard1" x="0" y="0" width="600" height="600" style="fill:none;"/>
    <g id="Artboard11" serif:id="Artboard1">
        <g transform="matrix(2.25256,0,0,2.25256,-589.569,-285.304)">
            <g transform="matrix(1,0,0,1,-95.1456,-6.66182)">
                <path d="M491.827,145.719C490.863,145.162 489.675,145.162 488.71,145.719C477.641,152.11 410.828,190.685 392.449,201.295C391.485,201.852 390.891,202.881 390.891,203.995C390.891,205.109 391.485,206.138 392.449,206.694C410.828,217.305 477.641,255.88 488.71,262.271C489.675,262.828 490.863,262.828 491.827,262.271C502.897,255.88 569.71,217.305 588.088,206.694C589.053,206.138 589.647,205.109 589.647,203.995C589.647,202.881 589.053,201.852 588.088,201.295C569.71,190.685 502.897,152.11 491.827,145.719Z" style="fill:rgb(11,2,45);"/>
            </g>
            <g transform="matrix(1,0,0,1,-100.975,0)">
                <path d="M392.449,206.694C391.485,206.138 390.297,206.138 389.332,206.694C388.368,207.251 387.774,208.28 387.774,209.394L387.774,320.547C387.774,321.66 388.368,322.689 389.332,323.246C400.401,329.637 467.215,368.212 485.593,378.823C486.558,379.379 487.746,379.379 488.71,378.823C489.675,378.266 490.269,377.237 490.269,376.123L490.269,264.97C490.269,263.857 489.675,262.828 488.71,262.271C477.641,255.88 410.828,217.305 392.449,206.694Z" style="fill:rgb(0,214,180);"/>
            </g>
            <g transform="matrix(1,0,0,1,-89.7329,0)">
                <path d="M588.088,206.694C589.053,206.138 590.241,206.138 591.206,206.694C592.17,207.251 592.764,208.28 592.764,209.394L592.764,320.547C592.764,321.66 592.17,322.689 591.206,323.246C580.136,329.637 513.323,368.212 494.944,378.823C493.98,379.379 492.792,379.379 491.827,378.823C490.863,378.266 490.269,377.237 490.269,376.123L490.269,264.97C490.269,263.857 490.863,262.828 491.827,262.271C502.897,255.88 569.71,217.305 588.088,206.694Z" style="fill:rgb(31,142,241);"/>
            </g>
        </g>
    </g>
</svg>
