<?xml version="1.0" encoding="UTF-8" standalone="no"?>
<!DOCTYPE svg PUBLIC "-//W3C//DTD SVG 1.1//EN" "http://www.w3.org/Graphics/SVG/1.1/DTD/svg11.dtd">
<svg width="100%" height="100%" viewBox="0 0 105 105" version="1.1" xmlns="http://www.w3.org/2000/svg" xmlns:xlink="http://www.w3.org/1999/xlink" xml:space="preserve" xmlns:serif="http://www.serif.com/" style="fill-rule:evenodd;clip-rule:evenodd;stroke-linejoin:round;stroke-miterlimit:2;">
    <rect id="Artboard1" x="0" y="0" width="105" height="105" style="fill:none;"/>
    <g id="Artboard11" serif:id="Artboard1">
        <g transform="matrix(0.417333,0,0,0.417333,-112.311,-53.9127)">
            <g transform="matrix(1,0,0,1,-95.1456,-6.66182)">
                <path d="M498.681,149.676C493.476,146.671 487.062,146.671 481.856,149.676C466.975,158.268 435.461,176.462 413.011,189.424C407.805,192.43 404.598,197.984 404.598,203.995C404.598,210.006 407.805,215.56 413.011,218.566C435.461,231.528 466.975,249.722 481.856,258.314C487.062,261.319 493.476,261.319 498.681,258.314C513.563,249.722 545.076,231.528 567.527,218.566C572.733,215.56 575.939,210.006 575.939,203.995C575.939,197.984 572.733,192.43 567.527,189.424C545.076,176.462 513.563,158.268 498.681,149.676Z" style="fill:rgb(11,2,45);"/>
            </g>
            <g transform="matrix(1,0,0,1,-100.975,0)">
                <path d="M413.011,218.566C407.805,215.56 401.391,215.56 396.186,218.566C390.98,221.571 387.774,227.125 387.774,233.136L387.774,312.633C387.774,318.643 390.98,324.198 396.186,327.203C411.068,335.795 442.581,353.989 465.032,366.951C470.237,369.957 476.651,369.957 481.857,366.951C487.062,363.946 490.269,358.392 490.269,352.381L490.269,272.884C490.269,266.873 487.062,261.319 481.856,258.314C466.975,249.722 435.461,231.528 413.011,218.566Z" style="fill:rgb(0,214,180);"/>
            </g>
            <g transform="matrix(1,0,0,1,-89.7329,0)">
                <path d="M567.527,218.566C572.733,215.56 579.146,215.56 584.352,218.566C589.557,221.571 592.764,227.125 592.764,233.136L592.764,312.633C592.764,318.643 589.557,324.198 584.352,327.203C569.47,335.795 537.957,353.989 515.506,366.951C510.3,369.957 503.887,369.957 498.681,366.951C493.476,363.946 490.269,358.392 490.269,352.381L490.269,272.884C490.269,266.873 493.476,261.319 498.681,258.314C513.563,249.722 545.076,231.528 567.527,218.566Z" style="fill:rgb(97,25,63);"/>
            </g>
        </g>
    </g>
</svg>
